# Blender v2.90.1 OBJ File: 'blender_scripting.blend'
# www.blender.org
mtllib pencil.mtl
o Pencil_Cylinder
v -4.256361 6.630616 0.642131
v -0.648671 -0.508355 0.501887
v -4.234220 6.642397 0.611995
v -0.626530 -0.496574 0.471751
v -4.217792 6.651376 0.577547
v -0.610102 -0.487595 0.437303
v -4.207706 6.657208 0.540111
v -0.600017 -0.481763 0.399867
v -4.204353 6.659669 0.501125
v -0.596663 -0.479302 0.360881
v -4.207859 6.658664 0.462088
v -0.600169 -0.480307 0.321844
v -4.218090 6.654232 0.424500
v -0.610400 -0.484739 0.284256
v -4.234653 6.646543 0.389806
v -0.626963 -0.492428 0.249562
v -4.256912 6.635893 0.359338
v -0.649222 -0.503078 0.219094
v -4.284011 6.622691 0.334267
v -0.676321 -0.516280 0.194023
v -4.314909 6.607444 0.315558
v -0.707219 -0.531527 0.175314
v -4.348418 6.590739 0.303928
v -0.740728 -0.548232 0.163684
v -4.383251 6.573216 0.299826
v -0.775561 -0.565754 0.159582
v -4.418069 6.555551 0.303407
v -0.810379 -0.583420 0.163164
v -4.451533 6.538421 0.314536
v -0.843843 -0.600550 0.174292
v -4.482359 6.522485 0.332784
v -0.874669 -0.616486 0.192540
v -4.509361 6.508355 0.357450
v -0.901671 -0.630616 0.217206
v -4.531502 6.496573 0.387586
v -0.923812 -0.642397 0.247342
v -4.547931 6.487595 0.422034
v -0.940240 -0.651376 0.281790
v -4.558015 6.481763 0.459470
v -0.950325 -0.657208 0.319226
v -4.561369 6.479302 0.498456
v -0.953679 -0.659669 0.358212
v -4.557863 6.480307 0.537493
v -0.950173 -0.658664 0.397249
v -4.547632 6.484739 0.575081
v -0.939942 -0.654232 0.434837
v -4.531069 6.492428 0.609775
v -0.923378 -0.646543 0.469531
v -4.508810 6.503078 0.640243
v -0.901119 -0.635893 0.499999
v -4.481710 6.516280 0.665314
v -0.874020 -0.622691 0.525070
v -4.450813 6.531527 0.684023
v -0.843123 -0.607444 0.543779
v -4.417304 6.548232 0.695653
v -0.809613 -0.590739 0.555409
v -4.382471 6.565754 0.699755
v -0.774781 -0.573216 0.559511
v -4.347653 6.583420 0.696173
v -0.739963 -0.555551 0.555929
v -4.314188 6.600550 0.685044
v -0.706498 -0.538421 0.544801
v -4.283363 6.616487 0.666796
v -0.675673 -0.522485 0.526552
v -0.429975 -1.207394 0.360649
v -0.428136 -1.219519 0.363055
v -0.427953 -1.206289 0.356409
v -0.426711 -1.205571 0.351802
v -0.426299 -1.205268 0.347004
v -0.426730 -1.205392 0.342199
v -0.427989 -1.205937 0.337573
v -0.430028 -1.206883 0.333303
v -0.432767 -1.208194 0.329553
v -0.436103 -1.209819 0.326467
v -0.439905 -1.211696 0.324165
v -0.444030 -1.213752 0.322733
v -0.448317 -1.215909 0.322228
v -0.452602 -1.218082 0.322669
v -0.456721 -1.220191 0.324039
v -0.460515 -1.222152 0.326285
v -0.463838 -1.223891 0.329321
v -0.466563 -1.225341 0.333030
v -0.468585 -1.226446 0.337269
v -0.469826 -1.227164 0.341877
v -0.470239 -1.227467 0.346675
v -0.469807 -1.227343 0.351480
v -0.468548 -1.226798 0.356106
v -0.466510 -1.225852 0.360376
v -0.463770 -1.224541 0.364126
v -0.460435 -1.222916 0.367211
v -0.456632 -1.221039 0.369514
v -0.452508 -1.218983 0.370945
v -0.448221 -1.216827 0.371450
v -0.443935 -1.214653 0.371009
v -0.439817 -1.212544 0.369640
v -0.430663 -1.220841 0.365364
v -0.406123 -1.302641 0.333791
v -0.406571 -1.302153 0.334109
v -0.406011 -1.302580 0.333556
v -0.405942 -1.302540 0.333301
v -0.405919 -1.302523 0.333035
v -0.405943 -1.302530 0.332769
v -0.406013 -1.302560 0.332513
v -0.406126 -1.302613 0.332276
v -0.406278 -1.302685 0.332069
v -0.406462 -1.302775 0.331898
v -0.406673 -1.302879 0.331770
v -0.406902 -1.302993 0.331691
v -0.407139 -1.303113 0.331663
v -0.407377 -1.303233 0.331687
v -0.407604 -1.303350 0.331763
v -0.407815 -1.303459 0.331888
v -0.407999 -1.303555 0.332056
v -0.408150 -1.303635 0.332261
v -0.408262 -1.303697 0.332496
v -0.408330 -1.303736 0.332751
v -0.408353 -1.303753 0.333017
v -0.408329 -1.303746 0.333283
v -0.408260 -1.303716 0.333539
v -0.408147 -1.303663 0.333776
v -0.407995 -1.303591 0.333984
v -0.407810 -1.303501 0.334155
v -0.407600 -1.303397 0.334282
v -0.407371 -1.303283 0.334361
v -0.407134 -1.303164 0.334389
v -0.406896 -1.303043 0.334365
v -0.406668 -1.302927 0.334289
v -0.406711 -1.302227 0.334237
v -4.324785 6.766015 0.644790
v -4.302644 6.777796 0.614654
v -4.286216 6.786775 0.580206
v -4.276131 6.792606 0.542770
v -4.272777 6.795067 0.503785
v -4.276283 6.794063 0.464748
v -4.286514 6.789630 0.427160
v -4.303077 6.781941 0.392465
v -4.325336 6.771292 0.361997
v -4.352435 6.758090 0.336927
v -4.383333 6.742843 0.318218
v -4.416842 6.726138 0.306588
v -4.451675 6.708615 0.302485
v -4.486493 6.690949 0.306067
v -4.519958 6.673820 0.317196
v -4.550783 6.657884 0.335444
v -4.577785 6.643753 0.360110
v -4.599926 6.631972 0.390246
v -4.616354 6.622993 0.424694
v -4.626439 6.617162 0.462130
v -4.629793 6.614701 0.501116
v -4.626287 6.615705 0.540152
v -4.616055 6.620138 0.577740
v -4.599492 6.627827 0.612435
v -4.577233 6.638476 0.642903
v -4.550135 6.651679 0.667973
v -4.519237 6.666925 0.686683
v -4.485727 6.683631 0.698312
v -4.450895 6.701153 0.702415
v -4.416077 6.718819 0.698833
v -4.382612 6.735949 0.687704
v -4.351787 6.751885 0.669456
vt 0.296822 0.485388
vt 0.250000 0.490000
vt 0.203179 0.485389
vt 0.158156 0.471731
vt 0.116663 0.449553
vt 0.080295 0.419706
vt 0.050447 0.383337
vt 0.028269 0.341844
vt 0.014612 0.296822
vt 0.010000 0.250000
vt 0.014611 0.203179
vt 0.028269 0.158156
vt 0.050447 0.116663
vt 0.080294 0.080294
vt 0.116663 0.050447
vt 0.158156 0.028269
vt 0.203178 0.014612
vt 0.250000 0.010000
vt 0.296822 0.014612
vt 0.341844 0.028269
vt 0.383337 0.050447
vt 0.419706 0.080294
vt 0.449553 0.116663
vt 0.471731 0.158156
vt 0.485388 0.203178
vt 0.490000 0.250000
vt 0.485388 0.296822
vt 0.471731 0.341844
vt 0.449553 0.383337
vt 0.419706 0.419706
vt 0.383337 0.449553
vt 0.341844 0.471731
vt 0.250000 1.000000
vt 0.281250 1.000000
vt 0.281250 1.000000
vt 0.250000 1.000000
vt 0.218750 1.000000
vt 0.218750 1.000000
vt 0.625000 1.000000
vt 0.656250 1.000000
vt 0.656250 1.000000
vt 0.625000 1.000000
vt 0.187500 1.000000
vt 0.187500 1.000000
vt 0.593750 1.000000
vt 0.593750 1.000000
vt 0.562500 1.000000
vt 0.562500 1.000000
vt 0.531250 1.000000
vt 0.531250 1.000000
vt 0.500000 1.000000
vt 0.500000 1.000000
vt 0.468750 1.000000
vt 0.468750 1.000000
vt 0.437500 1.000000
vt 0.437500 1.000000
vt 0.406250 1.000000
vt 0.406250 1.000000
vt 0.375000 1.000000
vt 0.375000 1.000000
vt 0.343750 1.000000
vt 0.343750 1.000000
vt 0.312500 1.000000
vt 0.312500 1.000000
vt 0.687500 1.000000
vt 0.718750 1.000000
vt 0.718750 1.000000
vt 0.687500 1.000000
vt 0.156250 1.000000
vt 0.156250 1.000000
vt 0.968750 1.000000
vt 1.000000 1.000000
vt 1.000000 1.000000
vt 0.968750 1.000000
vt 0.125000 1.000000
vt 0.125000 1.000000
vt 0.937500 1.000000
vt 0.937500 1.000000
vt 0.093750 1.000000
vt 0.093750 1.000000
vt 0.906250 1.000000
vt 0.906250 1.000000
vt 0.062500 1.000000
vt 0.062500 1.000000
vt 0.031250 1.000000
vt 0.031250 1.000000
vt 0.843750 1.000000
vt 0.875000 1.000000
vt 0.875000 1.000000
vt 0.843750 1.000000
vt 0.000000 1.000000
vt 0.000000 1.000000
vt 0.812500 1.000000
vt 0.812500 1.000000
vt 0.781250 1.000000
vt 0.781250 1.000000
vt 0.750000 1.000000
vt 0.750000 1.000000
vt 0.875000 1.000000
vt 0.906250 1.000000
vt 0.593750 1.000000
vt 0.625000 1.000000
vt 0.312500 1.000000
vt 0.343750 1.000000
vt 0.031250 1.000000
vt 0.062500 1.000000
vt 0.718750 1.000000
vt 0.750000 1.000000
vt 0.437500 1.000000
vt 0.468750 1.000000
vt 0.156250 1.000000
vt 0.187500 1.000000
vt 0.843750 1.000000
vt 0.562500 1.000000
vt 0.281250 1.000000
vt 0.968750 1.000000
vt 1.000000 1.000000
vt 0.000000 1.000000
vt 0.687500 1.000000
vt 0.406250 1.000000
vt 0.125000 1.000000
vt 0.812500 1.000000
vt 0.531250 1.000000
vt 0.250000 1.000000
vt 0.937500 1.000000
vt 0.656250 1.000000
vt 0.375000 1.000000
vt 0.093750 1.000000
vt 0.781250 1.000000
vt 0.500000 1.000000
vt 0.218750 1.000000
vt 1.000000 0.500000
vt 0.968750 0.500000
vt 0.937500 0.500000
vt 0.906250 0.500000
vt 0.875000 0.500000
vt 0.843750 0.500000
vt 0.812500 0.500000
vt 0.781250 0.500000
vt 0.750000 0.500000
vt 0.718750 0.500000
vt 0.687500 0.500000
vt 0.656250 0.500000
vt 0.625000 0.500000
vt 0.593750 0.500000
vt 0.562500 0.500000
vt 0.531250 0.500000
vt 0.500000 0.500000
vt 0.468750 0.500000
vt 0.437500 0.500000
vt 0.406250 0.500000
vt 0.375000 0.500000
vt 0.343750 0.500000
vt 0.312500 0.500000
vt 0.281250 0.500000
vt 0.250000 0.500000
vt 0.218750 0.500000
vt 0.187500 0.500000
vt 0.156250 0.500000
vt 0.125000 0.500000
vt 0.093750 0.500000
vt 0.062500 0.500000
vt 0.031250 0.500000
vt 0.000000 0.500000
vt 0.906250 0.500000
vt 0.937500 0.500000
vt 0.750000 0.490000
vt 0.796822 0.485388
vt 0.841844 0.471731
vt 0.883337 0.449553
vt 0.919706 0.419706
vt 0.949553 0.383337
vt 0.971731 0.341844
vt 0.985388 0.296822
vt 0.990000 0.250000
vt 0.985388 0.203178
vt 0.971731 0.158156
vt 0.949553 0.116663
vt 0.919706 0.080294
vt 0.883337 0.050447
vt 0.841844 0.028269
vt 0.796822 0.014612
vt 0.750000 0.010000
vt 0.703178 0.014612
vt 0.658156 0.028269
vt 0.616663 0.050447
vt 0.580294 0.080294
vt 0.550447 0.116663
vt 0.528269 0.158156
vt 0.514611 0.203179
vt 0.510000 0.250000
vt 0.514612 0.296822
vt 0.528269 0.341844
vt 0.550447 0.383337
vt 0.580295 0.419706
vt 0.616663 0.449553
vt 0.658156 0.471731
vt 0.703179 0.485389
vt 0.625000 0.500000
vt 0.656250 0.500000
vt 0.343750 0.500000
vt 0.375000 0.500000
vt 0.062500 0.500000
vt 0.093750 0.500000
vt 0.750000 0.500000
vt 0.781250 0.500000
vt 0.468750 0.500000
vt 0.500000 0.500000
vt 0.187500 0.500000
vt 0.218750 0.500000
vt 0.875000 0.500000
vt 0.593750 0.500000
vt 0.312500 0.500000
vt 0.031250 0.500000
vt 0.718750 0.500000
vt 0.437500 0.500000
vt 0.156250 0.500000
vt 0.843750 0.500000
vt 0.562500 0.500000
vt 0.281250 0.500000
vt 0.968750 0.500000
vt 1.000000 0.500000
vt 0.000000 0.500000
vt 0.687500 0.500000
vt 0.406250 0.500000
vt 0.125000 0.500000
vt 0.812500 0.500000
vt 0.531250 0.500000
vt 0.250000 0.500000
vn 0.4813 -0.8762 0.0250
vn -0.5300 -0.6018 0.5975
vn -0.3997 -0.5590 0.7265
vn 0.1377 -0.0420 -0.9896
vn -0.2520 -0.5035 0.8264
vn -0.0384 -0.1254 -0.9914
vn -0.2089 -0.2121 -0.9547
vn -0.3671 -0.2986 -0.8809
vn -0.5066 -0.3816 -0.7732
vn -0.6217 -0.4576 -0.6357
vn -0.7079 -0.5235 -0.4741
vn -0.7618 -0.5767 -0.2951
vn -0.7814 -0.6149 -0.1061
vn -0.7662 -0.6369 0.0852
vn -0.7174 -0.6418 0.2710
vn -0.6374 -0.6298 0.4438
vn 0.4782 0.1015 -0.8724
vn 0.3122 0.0346 -0.9494
vn -0.0923 -0.4376 0.8944
vn 0.9565 0.1698 0.2372
vn 0.0735 -0.3636 0.9286
vn 0.8885 0.0960 0.4487
vn 0.2398 -0.2844 0.9283
vn 0.9485 0.1499 0.2789
vn 0.4008 -0.2025 0.8935
vn 0.1970 -0.2962 0.9346
vn 0.9717 0.2170 -0.0929
vn 0.6927 -0.0707 0.7178
vn 0.9327 0.2268 -0.2806
vn 0.8605 0.2198 -0.4596
vn 0.7580 0.1959 -0.6222
vn 0.6288 0.1560 -0.7618
vn 0.9693 0.2256 0.0976
vn 0.0186 -0.2338 -0.9721
vn -0.7243 -0.6337 0.2719
vn 0.4948 -0.0284 0.8686
vn 0.6546 0.0832 -0.7514
vn -0.6606 -0.5870 -0.4680
vn -0.1445 -0.3535 0.9242
vn 0.9689 0.2292 -0.0929
vn -0.1481 -0.3188 -0.9362
vn -0.6588 -0.6041 0.4484
vn 0.7958 0.1294 0.5916
vn 0.6569 0.0570 0.7518
vn 0.5129 0.0138 -0.8583
vn -0.7254 -0.6231 -0.2925
vn 0.0224 -0.2699 0.9626
vn 0.9354 0.2159 -0.2801
vn -0.3052 -0.3996 -0.8644
vn -0.5640 -0.5593 0.6075
vn 0.8717 0.1692 0.4598
vn 0.3556 -0.0643 -0.9324
vn -0.7582 -0.6434 -0.1058
vn 0.1925 -0.1840 0.9639
vn 0.8700 0.1863 -0.4566
vn -0.4464 -0.4730 -0.7596
vn -0.4435 -0.5010 0.7432
vn 0.9365 0.2054 0.2843
vn 0.1887 -0.1479 -0.9708
vn -0.7578 -0.6469 0.0847
vn 0.3593 -0.0990 0.9280
vn 0.7751 0.1415 -0.6157
vn -0.5664 -0.5363 -0.6258
vn -0.3018 -0.4315 0.8501
vn 0.6912 0.3367 0.6394
vn 0.7881 0.3889 0.4772
vn 0.8547 0.4261 0.2966
vn 0.8884 0.4469 0.1046
vn 0.8881 0.4506 -0.0914
vn 0.8535 0.4369 -0.2838
vn 0.7862 0.4065 -0.4654
vn 0.6887 0.3604 -0.6291
vn 0.5647 0.3005 -0.7686
vn 0.4190 0.2290 -0.8786
vn 0.2572 0.1487 -0.9548
vn 0.0855 0.0628 -0.9944
vn -0.0894 -0.0256 -0.9957
vn -0.2610 -0.1130 -0.9587
vn -0.4225 -0.1961 -0.8849
vn -0.5677 -0.2716 -0.7771
vn -0.6912 -0.3367 -0.6394
vn -0.7881 -0.3889 -0.4772
vn -0.8547 -0.4261 -0.2966
vn -0.8884 -0.4469 -0.1046
vn -0.8881 -0.4506 0.0914
vn -0.8535 -0.4369 0.2839
vn -0.7862 -0.4065 0.4654
vn -0.6887 -0.3604 0.6291
vn -0.5647 -0.3005 0.7686
vn -0.4190 -0.2290 0.8786
vn -0.2572 -0.1487 0.9548
vn 0.0894 0.0256 0.9957
vn 0.2610 0.1130 0.9587
vn 0.4225 0.1961 0.8849
vn 0.5677 0.2716 0.7771
vn -0.0855 -0.0628 0.9944
vn -0.4510 0.8924 0.0175
usemtl Material.002
s off
f 97/1/1 98/2/1 128/3/1 127/4/1 126/5/1 125/6/1 124/7/1 123/8/1 122/9/1 121/10/1 120/11/1 119/12/1 118/13/1 117/14/1 116/15/1 115/16/1 114/17/1 113/18/1 112/19/1 111/20/1 110/21/1 109/22/1 108/23/1 107/24/1 106/25/1 105/26/1 104/27/1 103/28/1 102/29/1 101/30/1 100/31/1 99/32/1
f 89/33/2 88/34/2 120/35/2 121/36/2
f 90/37/3 89/33/3 121/36/3 122/38/3
f 77/39/4 76/40/4 108/41/4 109/42/4
f 91/43/5 90/37/5 122/38/5 123/44/5
f 78/45/6 77/39/6 109/42/6 110/46/6
f 79/47/7 78/45/7 110/46/7 111/48/7
f 80/49/8 79/47/8 111/48/8 112/50/8
f 81/51/9 80/49/9 112/50/9 113/52/9
f 82/53/10 81/51/10 113/52/10 114/54/10
f 83/55/11 82/53/11 114/54/11 115/56/11
f 84/57/12 83/55/12 115/56/12 116/58/12
f 85/59/13 84/57/13 116/58/13 117/60/13
f 86/61/14 85/59/14 117/60/14 118/62/14
f 87/63/15 86/61/15 118/62/15 119/64/15
f 88/34/16 87/63/16 119/64/16 120/35/16
usemtl Material.003
f 75/65/17 74/66/17 106/67/17 107/68/17
f 76/40/18 75/65/18 107/68/18 108/41/18
f 92/69/19 91/43/19 123/44/19 124/70/19
f 65/71/20 66/72/20 98/73/20 97/74/20
f 93/75/21 92/69/21 124/70/21 125/76/21
f 67/77/22 65/71/22 97/74/22 99/78/22
f 94/79/23 93/75/23 125/76/23 126/80/23
f 68/81/24 67/77/24 99/78/24 100/82/24
f 95/83/25 94/79/25 126/80/25 127/84/25
f 96/85/26 95/83/26 127/84/26 128/86/26
f 70/87/27 69/88/27 101/89/27 102/90/27
f 66/91/28 96/85/28 128/86/28 98/92/28
f 71/93/29 70/87/29 102/90/29 103/94/29
f 72/95/30 71/93/30 103/94/30 104/96/30
f 73/97/31 72/95/31 104/96/31 105/98/31
f 74/66/32 73/97/32 105/98/32 106/67/32
usemtl Material.004
f 10/99/33 8/100/33 68/81/33 69/88/33
f 28/101/34 26/102/34 77/39/34 78/45/34
f 46/103/35 44/104/35 86/61/35 87/63/35
f 64/105/36 62/106/36 95/83/36 96/85/36
f 20/107/37 18/108/37 73/97/37 74/66/37
f 38/109/38 36/110/38 82/53/38 83/55/38
f 56/111/39 54/112/39 91/43/39 92/69/39
f 12/113/40 10/99/40 69/88/40 70/87/40
f 30/114/41 28/101/41 78/45/41 79/47/41
f 48/115/42 46/103/42 87/63/42 88/34/42
f 4/116/43 2/117/43 66/72/43 65/71/43
f 2/118/44 64/105/44 96/85/44 66/91/44
f 22/119/45 20/107/45 74/66/45 75/65/45
f 40/120/46 38/109/46 83/55/46 84/57/46
f 58/121/47 56/111/47 92/69/47 93/75/47
f 14/122/48 12/113/48 70/87/48 71/93/48
f 32/123/49 30/114/49 79/47/49 80/49/49
f 50/124/50 48/115/50 88/34/50 89/33/50
f 6/125/51 4/116/51 65/71/51 67/77/51
f 24/126/52 22/119/52 75/65/52 76/40/52
f 42/127/53 40/120/53 84/57/53 85/59/53
f 60/128/54 58/121/54 93/75/54 94/79/54
f 16/129/55 14/122/55 71/93/55 72/95/55
f 34/130/56 32/123/56 80/49/56 81/51/56
f 52/131/57 50/124/57 89/33/57 90/37/57
f 8/100/58 6/125/58 67/77/58 68/81/58
f 26/102/59 24/126/59 76/40/59 77/39/59
f 44/104/60 42/127/60 85/59/60 86/61/60
f 62/106/61 60/128/61 94/79/61 95/83/61
f 18/108/62 16/129/62 72/95/62 73/97/62
f 36/110/63 34/130/63 81/51/63 82/53/63
f 54/112/64 52/131/64 90/37/64 91/43/64
usemtl Material.005
f 1/132/65 2/117/65 4/116/65 3/133/65
f 3/133/66 4/116/66 6/125/66 5/134/66
f 5/134/67 6/125/67 8/100/67 7/135/67
f 7/135/68 8/100/68 10/99/68 9/136/68
f 9/136/69 10/99/69 12/113/69 11/137/69
f 11/137/70 12/113/70 14/122/70 13/138/70
f 13/138/71 14/122/71 16/129/71 15/139/71
f 15/139/72 16/129/72 18/108/72 17/140/72
f 17/140/73 18/108/73 20/107/73 19/141/73
f 19/141/74 20/107/74 22/119/74 21/142/74
f 21/142/75 22/119/75 24/126/75 23/143/75
f 23/143/76 24/126/76 26/102/76 25/144/76
f 25/144/77 26/102/77 28/101/77 27/145/77
f 27/145/78 28/101/78 30/114/78 29/146/78
f 29/146/79 30/114/79 32/123/79 31/147/79
f 31/147/80 32/123/80 34/130/80 33/148/80
f 33/148/81 34/130/81 36/110/81 35/149/81
f 35/149/82 36/110/82 38/109/82 37/150/82
f 37/150/83 38/109/83 40/120/83 39/151/83
f 39/151/84 40/120/84 42/127/84 41/152/84
f 41/152/85 42/127/85 44/104/85 43/153/85
f 43/153/86 44/104/86 46/103/86 45/154/86
f 45/154/87 46/103/87 48/115/87 47/155/87
f 47/155/88 48/115/88 50/124/88 49/156/88
f 49/156/89 50/124/89 52/131/89 51/157/89
f 51/157/90 52/131/90 54/112/90 53/158/90
f 53/158/91 54/112/91 56/111/91 55/159/91
f 57/160/92 58/121/92 60/128/92 59/161/92
f 59/161/93 60/128/93 62/106/93 61/162/93
f 61/162/94 62/106/94 64/105/94 63/163/94
f 63/163/95 64/105/95 2/118/95 1/164/95
usemtl Material.006
f 55/159/96 56/111/96 58/121/96 57/160/96
f 5/134/67 7/135/67 132/165/67 131/166/67
f 129/167/97 130/168/97 131/169/97 132/170/97 133/171/97 134/172/97 135/173/97 136/174/97 137/175/97 138/176/97 139/177/97 140/178/97 141/179/97 142/180/97 143/181/97 144/182/97 145/183/97 146/184/97 147/185/97 148/186/97 149/187/97 150/188/97 151/189/97 152/190/97 153/191/97 154/192/97 155/193/97 156/194/97 157/195/97 158/196/97 159/197/97 160/198/97
f 23/143/76 25/144/76 141/199/76 140/200/76
f 41/152/85 43/153/85 150/201/85 149/202/85
f 59/161/93 61/162/93 159/203/93 158/204/93
f 15/139/72 17/140/72 137/205/72 136/206/72
f 33/148/81 35/149/81 146/207/81 145/208/81
f 51/157/90 53/158/90 155/209/90 154/210/90
f 7/135/68 9/136/68 133/211/68 132/165/68
f 25/144/77 27/145/77 142/212/77 141/199/77
f 43/153/86 45/154/86 151/213/86 150/201/86
f 61/162/94 63/163/94 160/214/94 159/203/94
f 17/140/73 19/141/73 138/215/73 137/205/73
f 35/149/82 37/150/82 147/216/82 146/207/82
f 53/158/91 55/159/91 156/217/91 155/209/91
f 9/136/69 11/137/69 134/218/69 133/211/69
f 27/145/78 29/146/78 143/219/78 142/212/78
f 45/154/87 47/155/87 152/220/87 151/213/87
f 1/132/65 3/133/65 130/221/65 129/222/65
f 63/163/95 1/164/95 129/223/95 160/214/95
f 19/141/74 21/142/74 139/224/74 138/215/74
f 37/150/83 39/151/83 148/225/83 147/216/83
f 55/159/96 57/160/96 157/226/96 156/217/96
f 11/137/70 13/138/70 135/227/70 134/218/70
f 29/146/79 31/147/79 144/228/79 143/219/79
f 47/155/88 49/156/88 153/229/88 152/220/88
f 3/133/66 5/134/66 131/166/66 130/221/66
f 21/142/75 23/143/75 140/200/75 139/224/75
f 39/151/84 41/152/84 149/202/84 148/225/84
f 57/160/92 59/161/92 158/204/92 157/226/92
f 13/138/71 15/139/71 136/206/71 135/227/71
f 31/147/80 33/148/80 145/208/80 144/228/80
f 49/156/89 51/157/89 154/210/89 153/229/89
